<?xml version="1.0" encoding="UTF-8"?>
<svg id="uuid-97212430-da0f-4e4e-9e54-c1958125e3af" data-name="Layer 2" xmlns="http://www.w3.org/2000/svg" viewBox="0 0 476.7 116.4">
  <defs>
    <style>
      .uuid-699b4f9f-e118-47b3-b9eb-fb4286766e0c {
        fill: #222e39;
      }
    </style>
  </defs>
  <g id="uuid-107d5449-1cc6-4d42-9566-544702d8dbf0" data-name="Layer 1-2">
    <g>
      <g>
        <path class="uuid-699b4f9f-e118-47b3-b9eb-fb4286766e0c" d="M.16,26.91H.16l.7-.11c-.32.05-.56.08-.7.11Z"/>
        <path class="uuid-699b4f9f-e118-47b3-b9eb-fb4286766e0c" d="M68.76,116.38l-.47-2.52-.54-9.62v-12.04l-.28-17.88-.38-6.02-1.88-7.9-3.76-9.32-8.09-9.32-10.73-7.81-10.82-4.14-10.35-2.92-15.15-.75L.03,26.83c5.79-.07,10.64,5.49,10.64,5.49h0c3.47,3.32,7.5,8.16,13.22,14.55,11.92,13.31,28.77,12.01,28.77,12.01-4.47,2.23-13.69.84-13.69.84.09,1.96,5.77,7.63,13.96,7.73,8.19.09,8.56,3.44,8.56,3.44-9.4.74-8.56,6.89-8.56,6.89,13.51-3.65,13.39,17.27,13.6,27.14.06,2.17-.59,3.96-1.5,5.76-.13.26-.14.45.26,1.09s3.27,4.42,3.46,4.61h.01Z"/>
      </g>
      <g>
        <g>
          <g>
            <path class="uuid-699b4f9f-e118-47b3-b9eb-fb4286766e0c" d="M191.68,116.4v-3.36h9.68l-7.94-23.82h-29.2l-8.34,23.82h9.55v3.36h-20.17v-3.36h6.59l32.16-88.55h4.71l30.68,88.55h6.45v3.36h-34.17ZM179.29,48.3l-13.59,37.55h26.11l-12.51-37.55h-.01Z"/>
            <path class="uuid-699b4f9f-e118-47b3-b9eb-fb4286766e0c" d="M295.08,103.34c-7.63,8.7-19.69,13.05-36.2,13.05h-34.98v-3.36h9.14V29.87h-9.14v-3.36h36.6c14.53,0,25.84,4.26,33.91,12.78,8.16,8.43,12.25,19.2,12.25,32.3s-3.86,23.06-11.57,31.76h0ZM282.43,37.81c-4.04-5.29-12.78-7.94-26.24-7.94h-6.06v83.17h9.15c11.48,0,19.15-3.41,23.01-10.23,3.95-6.91,5.92-18.21,5.92-33.91s-1.93-25.7-5.79-31.09h0Z"/>
            <path class="uuid-699b4f9f-e118-47b3-b9eb-fb4286766e0c" d="M381.92,116.4h-71.84v-3.36h8.73V29.87h-8.73v-3.36h69.55l.94,24.22h-3.77c-1.97-8.61-4.84-14.22-8.61-16.82-3.77-2.69-9.38-4.04-16.82-4.04h-15.48v38.62h3.63c6.82,0,11.3-1.62,13.46-4.84,2.24-3.32,3.36-7.18,3.36-11.57h3.77v37.55h-3.77c0-4.75-1.08-8.88-3.23-12.38-2.24-3.59-6.77-5.38-13.59-5.38h-3.63v41.18h18.03c8.7,0,14.76-2.11,18.17-6.32,3.41-4.22,5.79-10.63,7.13-19.24h3.9l-1.21,28.93v-.02Z"/>
            <path class="uuid-699b4f9f-e118-47b3-b9eb-fb4286766e0c" d="M389.09,116.4v-3.36h8.73V29.87h-8.73v-3.36h34.96v3.36h-9.14v83.17h9.14v3.36h-34.96ZM440.83,116.4v-3.36h8.15l-34.72-43.2,37.55-39.97h-10.75v-3.36h25v3.36h-9.01l-29.34,30.82,42.93,52.35h6.06v3.36h-35.87,0Z"/>
          </g>
          <path class="uuid-699b4f9f-e118-47b3-b9eb-fb4286766e0c" d="M186.39,24.7c-6.81,0-12.35-5.54-12.35-12.35s5.54-12.35,12.35-12.35,12.35,5.54,12.35,12.35-5.54,12.35-12.35,12.35ZM186.39,3.96c-4.63,0-8.4,3.77-8.4,8.4s3.77,8.4,8.4,8.4,8.4-3.77,8.4-8.4-3.77-8.4-8.4-8.4Z"/>
        </g>
        <path class="uuid-699b4f9f-e118-47b3-b9eb-fb4286766e0c" d="M151.54,116.38l-.53-3.36c-10.68,0-12.66-4.55-12.8-6.86l-.14-4.2c-.09-4.08-.48-7.89-1.16-11.42-.68-3.54-1.79-6.8-3.33-9.79-2.99-5.89-10.16-10.02-21.49-12.38,9.61-1.45,16.82-4.03,21.62-7.75,4.71-3.63,7.07-8.43,7.07-14.42,0-7.34-2.54-12.6-7.62-15.78-4.9-3.26-12.38-4.9-22.44-4.9h-41.98v3.4h11.45v84.05h-11.66l.21,3.4h37.96v-3.4h-9.24v-43.38h3.2c6.62,0,11.38,2.4,14.28,7.21,1.36,2.36,2.31,5.21,2.86,8.57.54,3.36.95,7.21,1.22,11.56l.41,5.85c.5,12.63,10.42,13.53,10.67,13.61h21.37s.04,0,.05,0h.02ZM97.48,66.2V28.94h9.45c5.62,0,9.61,1.5,11.97,4.49,2.18,2.9,3.26,7.66,3.26,14.28s-1.36,11.02-4.08,14.01c-2.72,2.99-7.03,4.49-12.92,4.49h-7.68Z"/>
        <path class="uuid-699b4f9f-e118-47b3-b9eb-fb4286766e0c" d="M68.74,115.97c-.1-2.85-.69-20.39-.47-28.8.24-9.17,3.62-34.76-18.83-50.45C27,21.04.72,26.72.72,26.72l-.72.11c61.65,2.32,65.57,46.05,65.57,46.05.52,9.13,1.14,19.03,1.73,28.36.33,3.94-.31,7.83-1.17,9.45-.12.22-.14.41.1.96.28.64,2.4,4.6,2.52,4.74v-.41h-.01Z"/>
      </g>
    </g>
  </g>
</svg>